<svg width="160" height="32" viewBox="0 0 160 32" fill="none" xmlns="http://www.w3.org/2000/svg">
<g clip-path="url(#clip0_1_239)">
<path fill-rule="evenodd" clip-rule="evenodd" d="M79.4999 0C76.0567 2.63825e-05 72.7259 1.25623 70.1034 3.54383C67.481 5.83143 65.738 9.00114 65.1864 12.4858C64.6348 15.9704 65.3106 19.5426 67.0928 22.5632C68.875 25.5837 71.6474 27.8555 74.9138 28.972C75.6391 29.1019 75.9073 28.6562 75.9073 28.2657C75.9073 27.9126 75.8891 26.7377 75.8891 25.4966C72.2461 26.1842 71.3031 24.5857 71.0133 23.7496C70.6904 22.9357 70.1788 22.2149 69.523 21.6494C69.0154 21.371 68.2901 20.6834 69.5048 20.6647C69.969 20.7163 70.4142 20.8823 70.8024 21.1483C71.1906 21.4144 71.5104 21.7727 71.7344 22.1927C71.9327 22.5579 72.1994 22.8795 72.519 23.1389C72.8387 23.3983 73.2052 23.5905 73.5975 23.7044C73.9897 23.8184 74.4001 23.8519 74.8049 23.8029C75.2098 23.754 75.6013 23.6237 75.957 23.4194C76.0197 22.6637 76.3481 21.9572 76.881 21.4312C73.652 21.0594 70.283 19.7776 70.283 14.0908C70.2637 12.6126 70.797 11.1829 71.7734 10.0951C71.33 8.81093 71.3818 7.40162 71.9183 6.15535C71.9183 6.15535 73.1329 5.76486 75.9057 7.68336C78.2784 7.01427 80.7834 7.01427 83.1561 7.68336C85.9289 5.75042 87.1435 6.15535 87.1435 6.15535C87.68 7.40162 87.7318 8.81093 87.2884 10.0951C88.2678 11.181 88.8015 12.612 88.7788 14.0908C88.7788 19.7963 85.3891 21.0594 82.1634 21.4312C82.5094 21.7909 82.7759 22.2226 82.9448 22.6972C83.1137 23.1718 83.1809 23.6781 83.142 24.1817C83.142 26.1698 83.1238 27.7682 83.1238 28.2699C83.1238 28.6604 83.3954 29.1248 84.1174 28.9762C87.3802 27.8526 90.1471 25.5762 91.9238 22.5537C93.7005 19.5311 94.3713 15.9594 93.8162 12.4766C93.2612 8.9938 91.5166 5.82672 88.8941 3.54117C86.2715 1.25562 82.9418 0.00049233 79.4999 0V0Z" fill="#1B1F23"/>
</g>
<g clip-path="url(#clip1_1_239)">
<path d="M123.941 4.61723e-05C123.807 -0.00355885 123.674 0.0264451 123.55 0.088131C123.426 0.149817 123.315 0.24182 123.222 0.35823C123.135 0.468783 123.07 0.602245 123.033 0.748052C122.996 0.89386 122.987 1.04801 123.009 1.1983L126.956 27.8265C127.017 28.1633 127.173 28.4645 127.398 28.6784C127.624 28.8923 127.905 29.0057 128.192 28.999H147.114C147.33 29.009 147.541 28.9274 147.711 28.7685C147.881 28.6096 147.999 28.3837 148.043 28.1309L151.988 1.20367C152.009 1.05372 152 0.900012 151.963 0.754622C151.926 0.609232 151.862 0.476124 151.774 0.365759C151.682 0.249349 151.57 0.157346 151.447 0.0956603C151.323 0.0339745 151.19 0.00397052 151.056 0.00757553L123.941 4.61723e-05ZM140.55 19.2452H134.51L132.874 9.74416H142.014L140.55 19.2452Z" fill="#2684FF"/>
<path d="M150.732 9.74414H142.013L140.55 19.2452H134.51L127.379 28.6537C127.61 28.8732 127.896 28.9933 128.192 28.9946H147.119C147.335 29.0047 147.546 28.923 147.716 28.7641C147.886 28.6053 148.004 28.3794 148.048 28.1266L150.732 9.74414Z" fill="url(#paint0_linear_1_239)"/>
</g>
<g clip-path="url(#clip2_1_239)">
<path fill-rule="evenodd" clip-rule="evenodd" d="M36.9478 16.582L35.3247 11.1609L32.1073 0.415743C32.0649 0.293349 31.9922 0.188534 31.8985 0.114739C31.8048 0.0409429 31.6944 0.00152588 31.5815 0.00152588C31.4685 0.00152588 31.3581 0.0409429 31.2645 0.114739C31.1708 0.188534 31.0981 0.293349 31.0557 0.415743L27.8383 11.1609H17.1606L13.9432 0.415743C13.9008 0.293349 13.8281 0.188534 13.7344 0.114739C13.6408 0.0409429 13.5304 0.00152588 13.4174 0.00152588C13.3045 0.00152588 13.1941 0.0409429 13.1004 0.114739C13.0067 0.188534 12.934 0.293349 12.8916 0.415743L9.6742 11.1609L8.05448 16.582C7.98345 16.826 7.98439 17.0908 8.05713 17.3341C8.12988 17.5773 8.27024 17.7851 8.45581 17.9242L22.4999 29.001L36.5439 17.9242C36.7295 17.7851 36.8699 17.5773 36.9426 17.3341C37.0153 17.0908 37.0163 16.826 36.9453 16.582" fill="#FC6D26"/>
<path fill-rule="evenodd" clip-rule="evenodd" d="M22.5004 29L27.8396 11.1559H17.1603L22.5004 28.996V29Z" fill="#E24329"/>
<path fill-rule="evenodd" clip-rule="evenodd" d="M22.5004 29.001L17.1603 11.1599H9.67729L22.5004 29.001Z" fill="#FC6D26"/>
<path fill-rule="evenodd" clip-rule="evenodd" d="M9.67645 11.1599L8.05419 16.581C7.98316 16.825 7.9841 17.0897 8.05684 17.333C8.12959 17.5763 8.26995 17.7841 8.45552 17.9232L22.4996 29L9.67645 11.1599Z" fill="#FCA326"/>
<path fill-rule="evenodd" clip-rule="evenodd" d="M9.67729 11.1599H17.1612L13.9438 0.414705C13.9014 0.292311 13.8287 0.187497 13.735 0.113701C13.6413 0.0399053 13.5309 0.000488281 13.418 0.000488281C13.305 0.000488281 13.1946 0.0399053 13.1009 0.113701C13.0073 0.187497 12.9346 0.292311 12.8922 0.414705L9.67729 11.1599Z" fill="#E24329"/>
<path fill-rule="evenodd" clip-rule="evenodd" d="M22.5004 29.0009L27.8405 11.1609H35.3244L22.5004 29.0009Z" fill="#FC6D26"/>
<path fill-rule="evenodd" clip-rule="evenodd" d="M35.3235 11.1599L36.9467 16.581C37.0177 16.825 37.0167 17.0897 36.944 17.333C36.8713 17.5763 36.7309 17.7841 36.5453 17.9232L22.5004 29L35.3235 11.1599Z" fill="#FCA326"/>
<path fill-rule="evenodd" clip-rule="evenodd" d="M35.3235 11.1599H27.8397L31.0571 0.414705C31.0995 0.292311 31.1722 0.187497 31.2659 0.113701C31.3595 0.0399053 31.4699 0.000488281 31.5829 0.000488281C31.6958 0.000488281 31.8062 0.0399053 31.8999 0.113701C31.9936 0.187497 32.0663 0.292311 32.1087 0.414705L35.3261 11.1599H35.3235Z" fill="#E24329"/>
</g>
<defs>
<linearGradient id="paint0_linear_1_239" x1="152.74" y1="12.4008" x2="141.195" y2="27.155" gradientUnits="userSpaceOnUse">
<stop offset="0.18" stop-color="#0052CC"/>
<stop offset="1" stop-color="#2684FF"/>
</linearGradient>
<clipPath id="clip0_1_239">
<rect width="29" height="29" fill="white" transform="translate(65)"/>
</clipPath>
<clipPath id="clip1_1_239">
<rect width="29" height="29" fill="white" transform="translate(123)"/>
</clipPath>
<clipPath id="clip2_1_239">
<rect width="29" height="29" fill="white" transform="translate(8)"/>
</clipPath>
</defs>
</svg>
