<svg width="29" height="29" viewBox="0 0 29 29" fill="none" xmlns="http://www.w3.org/2000/svg">
<path fill-rule="evenodd" clip-rule="evenodd" d="M14.4999 0C11.0567 2.63825e-05 7.72588 1.25623 5.10343 3.54383C2.48097 5.83143 0.73801 9.00114 0.186416 12.4858C-0.365179 15.9704 0.310591 19.5426 2.09281 22.5632C3.87502 25.5837 6.64738 27.8555 9.9138 28.972C10.6391 29.1019 10.9073 28.6562 10.9073 28.2657C10.9073 27.9126 10.8891 26.7377 10.8891 25.4966C7.24613 26.1842 6.30308 24.5857 6.0133 23.7496C5.69037 22.9357 5.17883 22.2149 4.52298 21.6494C4.01544 21.371 3.29015 20.6834 4.50476 20.6647C4.96899 20.7163 5.41417 20.8823 5.80239 21.1483C6.1906 21.4144 6.51037 21.7727 6.73445 22.1927C6.93273 22.5579 7.19936 22.8795 7.51905 23.1389C7.83874 23.3983 8.20521 23.5905 8.59747 23.7044C8.98972 23.8184 9.40005 23.8519 9.80495 23.8029C10.2098 23.754 10.6013 23.6237 10.957 23.4194C11.0197 22.6637 11.3481 21.9572 11.881 21.4312C8.652 21.0594 5.28304 19.7776 5.28304 14.0908C5.2637 12.6126 5.79696 11.1829 6.77336 10.0951C6.32997 8.81093 6.3818 7.40162 6.91825 6.15535C6.91825 6.15535 8.13287 5.76486 10.9057 7.68336C13.2784 7.01427 15.7834 7.01427 18.1561 7.68336C20.9289 5.75042 22.1435 6.15535 22.1435 6.15535C22.68 7.40162 22.7318 8.81093 22.2884 10.0951C23.2678 11.181 23.8015 12.612 23.7788 14.0908C23.7788 19.7963 20.3891 21.0594 17.1634 21.4312C17.5094 21.7909 17.7759 22.2226 17.9448 22.6972C18.1137 23.1718 18.1809 23.6781 18.142 24.1817C18.142 26.1698 18.1238 27.7682 18.1238 28.2699C18.1238 28.6604 18.3954 29.1248 19.1174 28.9762C22.3802 27.8526 25.1471 25.5762 26.9238 22.5537C28.7005 19.5311 29.3713 15.9595 28.8162 12.4766C28.2612 8.99379 26.5166 5.82672 23.8941 3.54117C21.2715 1.25562 17.9418 0.00049233 14.4999 0V0Z" fill="#1B1F23"/>
</svg>
